<svg xmlns="http://www.w3.org/2000/svg" xmlns:xlink="http://www.w3.org/1999/xlink" viewBox="0 0 950 825.42"><defs><style>.cls-1{isolation:isolate;}.cls-2{fill:#b8af85;}.cls-3{fill:#f4f1ea;}.cls-4{fill:#dad7ce;}.cls-10,.cls-5{opacity:0.3;}.cls-10,.cls-13,.cls-16,.cls-20,.cls-21,.cls-23,.cls-5{mix-blend-mode:multiply;}.cls-6{fill:#b3958f;}.cls-7{fill:#d79638;}.cls-8{fill:#c05627;}.cls-13,.cls-23,.cls-9{fill:#ede0d5;}.cls-10{fill:#f5cb68;}.cls-11{fill:#515068;}.cls-12{fill:#fcf8eb;}.cls-13{opacity:0.5;}.cls-14{fill:#b8b35e;}.cls-15{fill:#c7c37f;}.cls-16{fill:#8a8233;}.cls-16,.cls-21{opacity:0.4;}.cls-17{fill:#d26e4a;}.cls-18{fill:#f3beb0;}.cls-19{fill:#fdf0de;}.cls-20{opacity:0.66;fill:url(#linear-gradient);}.cls-21{fill:#ce8080;}.cls-22{fill:#e6d9ce;}.cls-23{opacity:0.7;}</style><linearGradient id="linear-gradient" x1="720.83" y1="144.05" x2="720.83" y2="234.6" gradientUnits="userSpaceOnUse"><stop offset="0.07" stop-color="#f0f1f1" stop-opacity="0.4"/><stop offset="0.21" stop-color="#eee9e9" stop-opacity="0.44"/><stop offset="0.43" stop-color="#e7d4d4" stop-opacity="0.56"/><stop offset="0.7" stop-color="#ddb0b0" stop-opacity="0.74"/><stop offset="1" stop-color="#ce8080"/></linearGradient></defs><g class="cls-1"><g id="Layer_2" data-name="Layer 2"><g id="Graphic_Elements" data-name="Graphic Elements"><path class="cls-2" d="M89.15,346c-9.23-33.74-8.94-63.2-.06-88.36,2.77-7.87,11.15-13.17,20.52-13.17H758.47c9.77,0,18.3,5.78,20.84,14.07a147,147,0,0,1,0,88c-2.54,8.29-11.07,14.07-20.84,14.07H110.13C100.14,360.57,91.48,354.53,89.15,346Z"/><path class="cls-3" d="M187.73,356.24c.11,1.44.24,2.87.38,4.31a.9.9,0,0,0,.16.5.84.84,0,0,0,.49.21c1.51.26,4.87.49,6.29,0,2-.64,1.51,0,1.69-2.85.3-4.87-.08-9.9-.17-14.78-.17-9.13-.5-18.53-.89-27.47-1-23.89-2-46.45,1-71a4.11,4.11,0,0,0,0-.7h-9.47c-3,25.13-2.05,47.94-1,72.08C186.77,329.75,186.69,343.07,187.73,356.24Z"/><path class="cls-3" d="M160.1,356.2c3.46,7.62,13.94,5.82,20.53,6-.19-32,1.22-64.11,1.22-95.95-.11-4.86,1.84-13.46-.17-17.7-2.37-5-15.12-6.18-19.73-4.08-2.65,1.22-2.4,5.59-2.79,8.43-4.57,32.88-1.1,66.62.12,99.62A10.07,10.07,0,0,0,160.1,356.2Z"/><path class="cls-4" d="M682.3,362c5.24-.58,10.7-1.64,10.68-1.42a546.24,546.24,0,0,0,3.08-66c-.14-10.74-.61-21.47-1.47-32.17-.24-3.09-.35-6.2-.63-9.29-.06-.64-1-8.63-1.1-8.64-3.44-.51-17.14-1.32-19.16,2.28a5.7,5.7,0,0,0-.57,2,69,69,0,0,0-.48,13.92c1.15,15.95,2.49,31.89,3.57,47.84,1.14,17-3.28,33.55-3.33,50.37C672.88,362.6,677.49,362.48,682.3,362Z"/><g class="cls-5"><path class="cls-6" d="M697.42,324.08c-81.1-3.52-162.49,1.19-243.64.76q-124.61-.66-249.23.23c-23.1.16-46,.45-68.46-6A103.49,103.49,0,0,1,106,305.34C100.63,301.69,82.8,289.18,82.8,282c-1.49,19.15.55,40.12,6.35,62.91,2.33,9.17,11,15.66,21,15.66H758.47c9.77,0,18.3-6.21,20.84-15.12A171.88,171.88,0,0,0,786,298.76C763.09,322.87,729,325.46,697.42,324.08Z"/></g><path class="cls-7" d="M946.6,809.82a24.91,24.91,0,0,1-3.4,6.85c-8.65,11.94-37.59,6.77-50.39,7q-34.69.66-69.4,1-69.42.61-138.83.22c-92.55-.4-185.1-1.6-277.66-1.93l-19.43-.06q-101.86,0-203.74-.06l-103.26.14C63.17,823,10.25,833.16,2,812c-3-7.65-2-16.2-1.15-24.37a374.59,374.59,0,0,0,1-61.3c-.79-12.16-6.08-33.46,7.63-40.63,5-2.59,14.16-.91,19.94-.91q276.21-.16,552.43,0H923.56c13.39,0,21.92,3.07,23,17.47,2.44,31.38,4.89,62.93,2.28,94.29A57.44,57.44,0,0,1,946.6,809.82Z"/><path class="cls-8" d="M833.71,792.2q1.66-33.56,3.34-67.11a283.69,283.69,0,0,0-.73-40.3H816.77c0,14.18.44,28.14.93,42.36,1,29.1-3.57,57.57-4.83,86.25-.16,3.76-.27,7.53-.3,11.3l10.84-.07,9.37-.09c.11-.86.24-1.93.44-3.28C834.53,812.54,833.26,801.31,833.71,792.2Z"/><path class="cls-8" d="M876.59,790.33q1.35-33.63,2.68-67.25A184.34,184.34,0,0,0,877,684.79H846.47c.57,13.89,1.72,27.54,3,41.45,2.65,29-3.38,57.74-4.27,86.47q-.18,5.85,0,11.69,15.48-.18,31-.43c.27-1,.41-2.45.82-4.57C878.61,810.61,876.23,799.46,876.59,790.33Z"/><path class="cls-9" d="M21.91,808.91a6.09,6.09,0,0,0,2.14,2.25c2,1.24,5,1.56,7.8,1.81,28.81,2.54,56.25,1.75,84.73,1.61,15.08-.07,43.05,6.52,52.69-4.44,4.34-4.92,3.87-10.85,3.68-16.46-1-28.81,8.4-57.82,1.36-86.31-.56-2.24-1.41-4.69-4.33-6.07-2.36-1.11-5.53-1.26-8.5-1.36L52.89,696.26c-9-.3-18.55-.52-26.28,2.31-15.89,5.84-9.44,36.19-9.12,45.17.39,11,1.32,22,2.14,33,.76,10-2.49,21.32,1.66,30.92A10.63,10.63,0,0,0,21.91,808.91Z"/><path class="cls-10" d="M915.09,776c-134.76,1.38-272.25,2.86-408,8-134.43,5.07-270,21.85-404.31,7.75q-6.06-.63-12.13-1.39c-28.06-3.43-65.55-5.23-88.37-23.62-.3,7-.77,13.95-1.46,20.9C0,795.8-1,804.35,2,812c8.25,21.16,61.17,11,78.49,10.94l103.26-.14q101.87-.1,203.74.06c176.17.39,352.44,1.57,528.65,2.08,6.1,0,12.43,0,18-2.55,16.06-7.35,16.63-29.6,14.73-47.16Q931.95,775.86,915.09,776Z"/><path class="cls-11" d="M868,367.25c-5.07-4.9-13.2-6.24-25.89-6.26-183.22-.33-366.44-.24-549.66-.69q-51.28-.14-102.55-.34c-21.29-.09-42.64.33-63.92-.26-17.29-.49-36.62-4.93-53.28,1.6-10.76,4.21-13.05,14.82-14,25.16a707.8,707.8,0,0,0-3.14,79.08C55.75,482.16,50,521.62,71,522.7c11.3.58,59.28,1.6,83.31,1.07,93-2,186,0,279,0H725.18c43.87,0,87.72,0,131.58.29,3,0,6.18,0,9-1.13,16.23-6.68,13.39-51.65,13.62-65.46.38-23.71-2.06-46.91-4.33-70.45C874.13,377.38,872,371.17,868,367.25Z"/><path class="cls-12" d="M155.13,507.12A567.23,567.23,0,0,1,156.56,360c-7.35,0-14.7,0-22-.14a589.07,589.07,0,0,0-1.09,149.86l.27,2.26c.5,4.07,1,8,1.27,11.92,7.22,0,13.91,0,19.37-.15l2.51,0c-.3-5-.89-9.8-1.45-14.39Z"/><path class="cls-12" d="M203.6,360,189.85,360h-8.29a612.21,612.21,0,0,0,1,163.33q11-.15,22-.24A590.72,590.72,0,0,1,203.6,360Z"/><path class="cls-13" d="M879.38,457.49c.38-23.71-2.06-46.91-4.33-70.45-.92-9.66-3-15.87-7.1-19.79-5.07-4.9-13.2-6.24-25.89-6.26l-15.17,0c8.26,8.47,15.43,18,17.11,30.35h2.39c1.6,24,12,46.33,6.39,70.3-7.19,31.15-39.94,42.33-70.3,39.94-144.38-11.4-291.16-9.16-435.75-2.31-87.23,4.13-170.94,15.68-257.65-.09-8.79-1.6-16.77-1.6-25.56-3.19q-4.25-.86-8.45-1.67c.6,14.4,3.83,27.78,16,28.4,11.3.58,59.28,1.6,83.31,1.07,93-2,186,0,279,0H725.18c43.87,0,87.72,0,131.58.29,3,0,6.18,0,9-1.13C882,516.27,879.15,471.3,879.38,457.49Z"/><path class="cls-14" d="M191.73,128.77c3.85,4.45,10.16,6.11,17.93,6.26q136.85,2.66,273.89,1.79c72.2-.42,145.36,2.18,217-8.14,21.23-3.05,25-47.72,25.17-63.59.25-20.29-3.3-48.44-22.15-60.47A29.86,29.86,0,0,0,687.12,0c-92.48,1-185,2.65-277.46,2.64-33.89,0-67.77-.36-101.65-.83q-25.75-.34-51.52-.76c-32.82-.51-55.8-7.37-66.77,28.47-8.7,28.45-3.88,60-2.05,87.94C188,122.42,189.42,126.1,191.73,128.77Z"/><path class="cls-15" d="M687.41,103c-4.08,5.92-9.54,9.19-17.43,9.38-14.66.35-29.38-.06-44.05-.06-12.81,0-52.19,9.09-58.22-4.28-4.75-10.54-.37-26.85-.12-38,.33-14.28-2-27.85-2.73-41.92-.59-11.87,6.76-9.08,16.72-8.95,7.92.1,15.85,0,23.78,0,21.59,0,43-1.26,64.51-1.14,4.12,0,8.6.36,11.67,3.11,2.77,2.48,3.72,6.35,4.54,10q2.19,9.77,4.4,19.52c3.4,15.09,6.71,31.39.6,45.61A39.88,39.88,0,0,1,687.41,103Z"/><path class="cls-16" d="M703.59,4.62A29.86,29.86,0,0,0,687.12,0L674.23.15c11.1,30.19,16.2,62.68,7.35,94-5.26,18.6-83,12.3-97.15,12.34-55.4.13-110.39,5.74-165.73,8.13-78.13,3.38-154.06-6-231.19-17.79-1.65,13.06-1.7,29.46,9.91,35.67,4.6,2.46,10.05,2.59,15.26,2.66,90.29,1.28,180.57,2.17,270.87,1.64,72.2-.42,145.36,2.18,217-8.14,21.23-3.05,25-47.72,25.17-63.59C726,44.8,722.44,16.65,703.59,4.62Z"/><path class="cls-17" d="M757.92,140c-4.43-3.79-10.68-5.86-19.08-6.12-100.3-3.19-200.67-1.48-301-.5-51.2.5-102.4.82-153.6.19-34.35-.41-68.68-3-103-2.06-19.73.54-39.55-3.4-58.77,2.83a18.85,18.85,0,0,0-7.22,3.73c-8.12,7.54-6.57,31.82-7.65,42.24-1.72,16.56-3.13,34,2.86,49.94C120.86,258,177.37,245,201,245q143.24-.39,286.48-.28,70.85,0,141.7.12,35.43,0,70.85.09c16.3,0,39.42,4.71,52.75-7.09,17.23-15.13,14.3-53.35,13.84-74.29C766.36,152.82,763.7,144.91,757.92,140Z"/><path class="cls-18" d="M159.93,222.55c6.51,9.56,41.73,3.5,51.18,3.38,21.17-.29,42.34-.78,63.51-1.34,41.61-1.11,83.22-2.5,124.84-3.16,81.7-1.28,163.32,2.73,245,2.16,8.46.17,13.85-2.54,16.43-11.16,4.6-15.38,8.84-53.35-10.39-58.2-16.53-4.17-38.19-.9-55.24-1.23q-27.59-.54-55.18-.89Q429.7,150.69,319.32,152q-58.65.72-117.3,1.2l-11,.08c-19.22.14-31.93,9.94-33.67,30.84C156.57,193.52,154.49,214.55,159.93,222.55Z"/><path class="cls-17" d="M745.64,188.81a69.73,69.73,0,0,1-2.07,21.31c-2.7,10.24-11,22.76-23.22,21.16-30.76-4-28.33-52.93-17-72.66,6.1-10.63,18.74-15.3,28.44-6.16C741.06,161.22,745,176.49,745.64,188.81Z"/><path class="cls-19" d="M722.46,234.64a18.12,18.12,0,0,1-2.53-.17c-9.92-1.3-17.66-7-22.36-16.5-8.74-17.63-5.45-46.27,3-60.95,3.89-6.79,10.24-11.44,17-12.44A19.55,19.55,0,0,1,734,150.12c12.51,11.79,14.56,32.46,14.88,38.52h0a73.22,73.22,0,0,1-2.17,22.3,39.31,39.31,0,0,1-8.81,16.4C733.37,232.15,728.08,234.64,722.46,234.64Zm-2.2-83.83a12.48,12.48,0,0,0-1.82.13c-4.8.71-9.41,4.18-12.33,9.28-7.59,13.24-10.39,39.53-2.78,54.89,3.76,7.59,9.63,12,17.43,13a13.44,13.44,0,0,0,1.66.1c9.55,0,16-11,18-18.9a66.55,66.55,0,0,0,2-20.31h0c-.79-14.56-5.6-27.33-12.87-34.19A13.49,13.49,0,0,0,720.26,150.81Z"/><path class="cls-20" d="M749,186.17c-2-14.5-5.33-31.95-20.39-39.82-8-4.17-16.1-2.57-22.92,4C695.1,160.46,692,178.22,692.41,192.1c.43,13.65,3.18,29.78,15.82,37.89,5.66,3.63,12.92,5.83,19.48,3.88,10.46-3.11,16.63-15.11,19.34-25.09,1.25-4.61,2.48-9.72,2.2-14.53C749.11,191.93,749.28,188.47,749,186.17Z"/><path class="cls-21" d="M766.6,163.51c-.24-10.69-2.9-18.6-8.68-23.55-4.43-3.79-10.68-5.86-19.08-6.12-2.43-.08-4.86-.14-7.3-.21a63.12,63.12,0,0,1,.87,6.85c.88,2.65,3.53,5.3,3.53,7.07,5.3,22.06,8.83,44.13,1.77,65.32-.89,1.76-4.42,3.53-7.06,4.41-14.13,4.42-30,5.3-44.14,6.18-91.46,5.72-181.48,2.68-273-.51-52.87-1.85-105.64,1.06-158.5,1.6-12.85.13-147.23-3.41-147.69-6.05a64.3,64.3,0,0,0,3.13,11.71C120.86,258,177.37,245,201,245q143.24-.39,286.48-.28,70.85,0,141.7.12,35.43,0,70.85.09c16.3,0,39.42,4.71,52.75-7.09C770,222.67,767.06,184.45,766.6,163.51Z"/><path class="cls-22" d="M868,531.07c-5.07-4.8-13.2-6.11-25.89-6.13-183.22-.33-366.44-.24-549.66-.68q-51.28-.12-102.55-.33c-21.29-.09-42.64.32-63.92-.26-17.29-.47-36.62-4.83-53.28,1.57-10.76,4.13-13.05,14.54-14,24.68a680.92,680.92,0,0,0-3.14,77.56c.28,16.3-5.49,55,15.56,56.06,11.3.57,59.28,1.57,83.31,1.06,93-2,186,0,279,0H725.18c43.87,0,87.72,0,131.58.29,3,0,6.18,0,9-1.11,16.23-6.56,13.39-50.67,13.62-64.21.38-23.25-2.06-46-4.33-69.09C874.13,541,872,534.92,868,531.07Z"/><path class="cls-23" d="M879.38,619.58c.38-23.25-2.06-46-4.33-69.09-.92-9.48-3-15.57-7.1-19.42-5.07-4.8-13.2-6.11-25.89-6.13l-15.17,0c8.26,8.31,15.43,17.7,17.11,29.77h2.39c1.6,23.51,12,45.44,6.39,69-7.19,30.56-39.94,41.53-70.3,39.18-144.38-11.18-291.16-9-435.75-2.27-87.23,4.05-170.94,15.38-257.65-.08-8.79-1.57-16.77-1.57-25.56-3.14l-8.45-1.64c.6,14.13,3.83,27.25,16,27.86,11.3.57,59.28,1.57,83.31,1.06,93-2,186,0,279,0H725.18c43.87,0,87.72,0,131.58.29,3,0,6.18,0,9-1.11C882,677.23,879.15,633.12,879.38,619.58Z"/></g></g></g></svg>